<mxfile host="app.diagrams.net" modified="2022-04-01T12:35:44.282Z" agent="5.0 (Macintosh; Intel Mac OS X 10_15_7) AppleWebKit/537.36 (KHTML, like Gecko) Chrome/89.0.4389.90 Safari/537.36" etag="M1OVa43DcA0y9KxQv0J9" version="17.4.0" type="github">
  <diagram id="kBh1hhOeBmAW211gL_7e" name="Page-1">
    <mxGraphModel dx="972" dy="980" grid="1" gridSize="10" guides="1" tooltips="1" connect="1" arrows="1" fold="1" page="1" pageScale="1" pageWidth="827" pageHeight="1169" math="0" shadow="0">
      <root>
        <mxCell id="0" />
        <mxCell id="1" parent="0" />
        <mxCell id="32C1EGCC58qS46MOiEEf-2" value="" style="endArrow=none;html=1;rounded=0;" parent="1" edge="1">
          <mxGeometry width="50" height="50" relative="1" as="geometry">
            <mxPoint x="240" y="620" as="sourcePoint" />
            <mxPoint x="240" y="620" as="targetPoint" />
          </mxGeometry>
        </mxCell>
        <mxCell id="32C1EGCC58qS46MOiEEf-4" value="사용자" style="swimlane;" parent="1" vertex="1">
          <mxGeometry x="60" y="55" width="170" height="490" as="geometry" />
        </mxCell>
        <mxCell id="32C1EGCC58qS46MOiEEf-6" value="프로젝트 등록 버튼 클릭" style="ellipse;whiteSpace=wrap;html=1;" parent="32C1EGCC58qS46MOiEEf-4" vertex="1">
          <mxGeometry x="20" y="40" width="125" height="40" as="geometry" />
        </mxCell>
        <mxCell id="32C1EGCC58qS46MOiEEf-8" value="제목, 내용, 난이도, 기간, 모집현황, 팀원등록, 개발완료 여부 편집" style="rounded=1;whiteSpace=wrap;html=1;" parent="32C1EGCC58qS46MOiEEf-4" vertex="1">
          <mxGeometry x="20" y="170" width="125" height="50" as="geometry" />
        </mxCell>
        <mxCell id="32C1EGCC58qS46MOiEEf-10" value="프로젝트 수정 버튼 클릭" style="ellipse;whiteSpace=wrap;html=1;" parent="32C1EGCC58qS46MOiEEf-4" vertex="1">
          <mxGeometry x="20" y="90" width="125" height="30" as="geometry" />
        </mxCell>
        <mxCell id="32C1EGCC58qS46MOiEEf-5" value="웹" style="swimlane;" parent="1" vertex="1">
          <mxGeometry x="230" y="55" width="190" height="490" as="geometry" />
        </mxCell>
        <mxCell id="32C1EGCC58qS46MOiEEf-7" value="편집 페이지로 이동" style="rounded=1;whiteSpace=wrap;html=1;" parent="32C1EGCC58qS46MOiEEf-5" vertex="1">
          <mxGeometry x="30" y="100" width="120" height="40" as="geometry" />
        </mxCell>
        <mxCell id="32C1EGCC58qS46MOiEEf-9" value="project id, 생성일자 포함한 프로젝트 정보 DB에 저장" style="rounded=1;whiteSpace=wrap;html=1;" parent="32C1EGCC58qS46MOiEEf-5" vertex="1">
          <mxGeometry x="30" y="180" width="120" height="60" as="geometry" />
        </mxCell>
        <mxCell id="32C1EGCC58qS46MOiEEf-15" value="프로젝트 정보 DB" style="shape=cylinder3;whiteSpace=wrap;html=1;boundedLbl=1;backgroundOutline=1;size=15;" parent="32C1EGCC58qS46MOiEEf-5" vertex="1">
          <mxGeometry x="40" y="290" width="100" height="60" as="geometry" />
        </mxCell>
        <mxCell id="32C1EGCC58qS46MOiEEf-16" value="" style="endArrow=none;dashed=1;html=1;dashPattern=1 3;strokeWidth=2;rounded=0;entryX=0.5;entryY=1;entryDx=0;entryDy=0;exitX=0.5;exitY=0;exitDx=0;exitDy=0;exitPerimeter=0;" parent="32C1EGCC58qS46MOiEEf-5" source="32C1EGCC58qS46MOiEEf-15" target="32C1EGCC58qS46MOiEEf-9" edge="1">
          <mxGeometry width="50" height="50" relative="1" as="geometry">
            <mxPoint x="70" y="290" as="sourcePoint" />
            <mxPoint x="120" y="240" as="targetPoint" />
          </mxGeometry>
        </mxCell>
        <mxCell id="32C1EGCC58qS46MOiEEf-26" value="Main페이지,&lt;br&gt;프로젝트 메뉴 페이지,&lt;br&gt;사용자 페이지(참여자)에 노출" style="rounded=1;whiteSpace=wrap;html=1;" parent="32C1EGCC58qS46MOiEEf-5" vertex="1">
          <mxGeometry x="15" y="400" width="150" height="60" as="geometry" />
        </mxCell>
        <mxCell id="32C1EGCC58qS46MOiEEf-11" value="" style="endArrow=none;html=1;rounded=0;entryX=1;entryY=0.5;entryDx=0;entryDy=0;exitX=0;exitY=0.5;exitDx=0;exitDy=0;" parent="1" source="32C1EGCC58qS46MOiEEf-7" target="32C1EGCC58qS46MOiEEf-6" edge="1">
          <mxGeometry width="50" height="50" relative="1" as="geometry">
            <mxPoint x="300" y="275" as="sourcePoint" />
            <mxPoint x="350" y="225" as="targetPoint" />
            <Array as="points">
              <mxPoint x="240" y="175" />
              <mxPoint x="240" y="115" />
            </Array>
          </mxGeometry>
        </mxCell>
        <mxCell id="32C1EGCC58qS46MOiEEf-12" value="" style="endArrow=none;html=1;rounded=0;exitX=1;exitY=0.5;exitDx=0;exitDy=0;entryX=0;entryY=0.5;entryDx=0;entryDy=0;" parent="1" source="32C1EGCC58qS46MOiEEf-10" target="32C1EGCC58qS46MOiEEf-7" edge="1">
          <mxGeometry width="50" height="50" relative="1" as="geometry">
            <mxPoint x="300" y="275" as="sourcePoint" />
            <mxPoint x="350" y="225" as="targetPoint" />
            <Array as="points">
              <mxPoint x="220" y="160" />
              <mxPoint x="220" y="175" />
            </Array>
          </mxGeometry>
        </mxCell>
        <mxCell id="32C1EGCC58qS46MOiEEf-13" value="" style="endArrow=none;html=1;rounded=0;entryX=0.5;entryY=1;entryDx=0;entryDy=0;exitX=0.556;exitY=-0.007;exitDx=0;exitDy=0;exitPerimeter=0;" parent="1" source="32C1EGCC58qS46MOiEEf-8" target="32C1EGCC58qS46MOiEEf-7" edge="1">
          <mxGeometry width="50" height="50" relative="1" as="geometry">
            <mxPoint x="190" y="195" as="sourcePoint" />
            <mxPoint x="350" y="225" as="targetPoint" />
            <Array as="points">
              <mxPoint x="150" y="205" />
              <mxPoint x="320" y="205" />
            </Array>
          </mxGeometry>
        </mxCell>
        <mxCell id="32C1EGCC58qS46MOiEEf-14" value="" style="endArrow=none;html=1;rounded=0;exitX=1;exitY=0.81;exitDx=0;exitDy=0;entryX=0;entryY=0.5;entryDx=0;entryDy=0;exitPerimeter=0;" parent="1" source="32C1EGCC58qS46MOiEEf-8" target="32C1EGCC58qS46MOiEEf-9" edge="1">
          <mxGeometry width="50" height="50" relative="1" as="geometry">
            <mxPoint x="300" y="275" as="sourcePoint" />
            <mxPoint x="350" y="225" as="targetPoint" />
            <Array as="points">
              <mxPoint x="210" y="265" />
            </Array>
          </mxGeometry>
        </mxCell>
        <mxCell id="32C1EGCC58qS46MOiEEf-25" value="" style="endArrow=none;dashed=1;html=1;dashPattern=1 3;strokeWidth=2;rounded=0;entryX=0.5;entryY=1;entryDx=0;entryDy=0;entryPerimeter=0;" parent="1" target="32C1EGCC58qS46MOiEEf-15" edge="1">
          <mxGeometry width="50" height="50" relative="1" as="geometry">
            <mxPoint x="320" y="455" as="sourcePoint" />
            <mxPoint x="360" y="365" as="targetPoint" />
          </mxGeometry>
        </mxCell>
        <mxCell id="32C1EGCC58qS46MOiEEf-27" value="사용자 " style="swimlane;" parent="1" vertex="1">
          <mxGeometry x="440" y="55" width="180" height="490" as="geometry" />
        </mxCell>
        <mxCell id="32C1EGCC58qS46MOiEEf-31" value="원하는 프로젝트 페이지 클릭" style="ellipse;whiteSpace=wrap;html=1;" parent="32C1EGCC58qS46MOiEEf-27" vertex="1">
          <mxGeometry x="20" y="40" width="140" height="45" as="geometry" />
        </mxCell>
        <mxCell id="32C1EGCC58qS46MOiEEf-36" value="해당 페이지 소개 확인 후, &#39;팀장에게 쪽지보내기&#39; 클릭" style="rounded=1;whiteSpace=wrap;html=1;" parent="32C1EGCC58qS46MOiEEf-27" vertex="1">
          <mxGeometry x="25" y="120" width="130" height="50" as="geometry" />
        </mxCell>
        <mxCell id="32C1EGCC58qS46MOiEEf-42" value="참여의사 밝힌 후&lt;br&gt;보내기 버튼 클릭" style="rounded=1;whiteSpace=wrap;html=1;" parent="32C1EGCC58qS46MOiEEf-27" vertex="1">
          <mxGeometry x="30" y="230" width="120" height="50" as="geometry" />
        </mxCell>
        <mxCell id="32C1EGCC58qS46MOiEEf-50" value="팀장 확인 후, 프로젝트 수정 클릭" style="rounded=1;whiteSpace=wrap;html=1;" parent="32C1EGCC58qS46MOiEEf-27" vertex="1">
          <mxGeometry x="35" y="290" width="120" height="60" as="geometry" />
        </mxCell>
        <mxCell id="32C1EGCC58qS46MOiEEf-52" value="팀원 추가 후 편집 완료" style="rounded=1;whiteSpace=wrap;html=1;" parent="32C1EGCC58qS46MOiEEf-27" vertex="1">
          <mxGeometry x="40" y="390" width="120" height="60" as="geometry" />
        </mxCell>
        <mxCell id="32C1EGCC58qS46MOiEEf-28" value="웹" style="swimlane;" parent="1" vertex="1">
          <mxGeometry x="620" y="55" width="180" height="490" as="geometry" />
        </mxCell>
        <mxCell id="32C1EGCC58qS46MOiEEf-33" value="해당 프로젝트 페이지로 이동" style="rounded=1;whiteSpace=wrap;html=1;" parent="32C1EGCC58qS46MOiEEf-28" vertex="1">
          <mxGeometry x="40" y="40" width="120" height="40" as="geometry" />
        </mxCell>
        <mxCell id="32C1EGCC58qS46MOiEEf-41" value="쪽지 보내기 페이지로 이동, 받는 사람에 팀장 아이디 자동 작성" style="rounded=1;whiteSpace=wrap;html=1;" parent="32C1EGCC58qS46MOiEEf-28" vertex="1">
          <mxGeometry x="40" y="120" width="110" height="70" as="geometry" />
        </mxCell>
        <mxCell id="32C1EGCC58qS46MOiEEf-44" value="팀장의 받은쪽지함에 전달" style="rounded=1;whiteSpace=wrap;html=1;" parent="32C1EGCC58qS46MOiEEf-28" vertex="1">
          <mxGeometry x="40" y="240" width="130" height="50" as="geometry" />
        </mxCell>
        <mxCell id="32C1EGCC58qS46MOiEEf-51" value="편집 페이지로 이동" style="rounded=1;whiteSpace=wrap;html=1;" parent="32C1EGCC58qS46MOiEEf-28" vertex="1">
          <mxGeometry x="40" y="330" width="120" height="60" as="geometry" />
        </mxCell>
        <mxCell id="32C1EGCC58qS46MOiEEf-54" value="프로젝트 정보 DB" style="shape=cylinder3;whiteSpace=wrap;html=1;boundedLbl=1;backgroundOutline=1;size=15;" parent="32C1EGCC58qS46MOiEEf-28" vertex="1">
          <mxGeometry x="40" y="410" width="100" height="60" as="geometry" />
        </mxCell>
        <mxCell id="32C1EGCC58qS46MOiEEf-29" value="프로젝트 등록 및 수정" style="text;html=1;align=center;verticalAlign=middle;resizable=0;points=[];autosize=1;strokeColor=none;fillColor=none;" parent="1" vertex="1">
          <mxGeometry x="60" y="25" width="120" height="20" as="geometry" />
        </mxCell>
        <mxCell id="32C1EGCC58qS46MOiEEf-30" value="프로젝트 참여" style="text;html=1;align=center;verticalAlign=middle;resizable=0;points=[];autosize=1;strokeColor=none;fillColor=none;" parent="1" vertex="1">
          <mxGeometry x="450" y="25" width="80" height="20" as="geometry" />
        </mxCell>
        <mxCell id="32C1EGCC58qS46MOiEEf-32" style="edgeStyle=orthogonalEdgeStyle;rounded=0;orthogonalLoop=1;jettySize=auto;html=1;" parent="1" source="32C1EGCC58qS46MOiEEf-31" edge="1">
          <mxGeometry relative="1" as="geometry">
            <mxPoint x="660" y="118" as="targetPoint" />
          </mxGeometry>
        </mxCell>
        <mxCell id="32C1EGCC58qS46MOiEEf-38" value="" style="endArrow=classic;html=1;rounded=0;entryX=0.5;entryY=0;entryDx=0;entryDy=0;exitX=0.5;exitY=1;exitDx=0;exitDy=0;" parent="1" source="32C1EGCC58qS46MOiEEf-33" target="32C1EGCC58qS46MOiEEf-36" edge="1">
          <mxGeometry width="50" height="50" relative="1" as="geometry">
            <mxPoint x="400" y="255" as="sourcePoint" />
            <mxPoint x="450" y="205" as="targetPoint" />
            <Array as="points">
              <mxPoint x="720" y="155" />
              <mxPoint x="530" y="155" />
            </Array>
          </mxGeometry>
        </mxCell>
        <mxCell id="32C1EGCC58qS46MOiEEf-40" style="edgeStyle=orthogonalEdgeStyle;rounded=0;orthogonalLoop=1;jettySize=auto;html=1;" parent="1" source="32C1EGCC58qS46MOiEEf-36" edge="1">
          <mxGeometry relative="1" as="geometry">
            <mxPoint x="670" y="200" as="targetPoint" />
          </mxGeometry>
        </mxCell>
        <mxCell id="32C1EGCC58qS46MOiEEf-43" style="edgeStyle=orthogonalEdgeStyle;rounded=0;orthogonalLoop=1;jettySize=auto;html=1;entryX=0;entryY=0.5;entryDx=0;entryDy=0;" parent="1" source="32C1EGCC58qS46MOiEEf-42" target="32C1EGCC58qS46MOiEEf-44" edge="1">
          <mxGeometry relative="1" as="geometry">
            <mxPoint x="660" y="280" as="targetPoint" />
          </mxGeometry>
        </mxCell>
        <mxCell id="32C1EGCC58qS46MOiEEf-45" style="edgeStyle=orthogonalEdgeStyle;rounded=0;orthogonalLoop=1;jettySize=auto;html=1;exitX=0;exitY=0.75;exitDx=0;exitDy=0;" parent="1" source="32C1EGCC58qS46MOiEEf-41" target="32C1EGCC58qS46MOiEEf-42" edge="1">
          <mxGeometry relative="1" as="geometry" />
        </mxCell>
        <mxCell id="32C1EGCC58qS46MOiEEf-55" style="edgeStyle=orthogonalEdgeStyle;rounded=0;orthogonalLoop=1;jettySize=auto;html=1;" parent="1" source="32C1EGCC58qS46MOiEEf-52" target="32C1EGCC58qS46MOiEEf-54" edge="1">
          <mxGeometry relative="1" as="geometry" />
        </mxCell>
        <mxCell id="32C1EGCC58qS46MOiEEf-56" style="edgeStyle=orthogonalEdgeStyle;rounded=0;orthogonalLoop=1;jettySize=auto;html=1;entryX=0.5;entryY=0;entryDx=0;entryDy=0;" parent="1" source="32C1EGCC58qS46MOiEEf-51" target="32C1EGCC58qS46MOiEEf-52" edge="1">
          <mxGeometry relative="1" as="geometry" />
        </mxCell>
        <mxCell id="32C1EGCC58qS46MOiEEf-57" style="edgeStyle=orthogonalEdgeStyle;rounded=0;orthogonalLoop=1;jettySize=auto;html=1;entryX=0.5;entryY=0;entryDx=0;entryDy=0;" parent="1" source="32C1EGCC58qS46MOiEEf-50" target="32C1EGCC58qS46MOiEEf-51" edge="1">
          <mxGeometry relative="1" as="geometry" />
        </mxCell>
        <mxCell id="32C1EGCC58qS46MOiEEf-59" value="" style="endArrow=classic;html=1;rounded=0;exitX=0.5;exitY=1;exitDx=0;exitDy=0;entryX=1.002;entryY=0.115;entryDx=0;entryDy=0;entryPerimeter=0;" parent="1" source="32C1EGCC58qS46MOiEEf-44" target="32C1EGCC58qS46MOiEEf-50" edge="1">
          <mxGeometry width="50" height="50" relative="1" as="geometry">
            <mxPoint x="390" y="365" as="sourcePoint" />
            <mxPoint x="440" y="315" as="targetPoint" />
          </mxGeometry>
        </mxCell>
        <mxCell id="aDtPpz8OGb9bspxdgJ5Z-1" value="사용자 " style="swimlane;startSize=30;" vertex="1" parent="1">
          <mxGeometry x="930" y="40" width="220" height="490" as="geometry" />
        </mxCell>
        <mxCell id="aDtPpz8OGb9bspxdgJ5Z-6" value="" style="ellipse;whiteSpace=wrap;html=1;" vertex="1" parent="aDtPpz8OGb9bspxdgJ5Z-1">
          <mxGeometry x="60" y="40" width="100" height="40" as="geometry" />
        </mxCell>
        <mxCell id="aDtPpz8OGb9bspxdgJ5Z-4" value="웹" style="swimlane;startSize=30;" vertex="1" parent="1">
          <mxGeometry x="1150" y="40" width="220" height="490" as="geometry" />
        </mxCell>
        <mxCell id="aDtPpz8OGb9bspxdgJ5Z-5" value="" style="rounded=1;whiteSpace=wrap;html=1;" vertex="1" parent="aDtPpz8OGb9bspxdgJ5Z-4">
          <mxGeometry x="60" y="45" width="100" height="30" as="geometry" />
        </mxCell>
      </root>
    </mxGraphModel>
  </diagram>
</mxfile>
